HIERARCHY
ROOT Hips
{
	OFFSET 0.000000 71.427986 0.000000
	CHANNELS 6 Xposition Yposition Zposition Xrotation Yrotation Zrotation
	JOINT Pelvis
	{
		OFFSET 0.000000 0.000000 0.000000
		CHANNELS 3 Xrotation Yrotation Zrotation
		JOINT LeftUpLeg
		{
			OFFSET 6.797100 -2.508499 -1.318700
			CHANNELS 3 Xrotation Yrotation Zrotation
			JOINT LeftLeg
			{
				OFFSET 0.069008 -29.241863 0.690200
				CHANNELS 3 Xrotation Yrotation Zrotation
				JOINT LeftFoot
				{
					OFFSET -0.069008 -29.568123 -0.266800
					CHANNELS 3 Xrotation Yrotation Zrotation
					JOINT LeftToeBase
					{
						OFFSET 3.145500 -8.631000 16.059900
						CHANNELS 3 Xrotation Yrotation Zrotation
						End Site
						{
							OFFSET 0.000000 18.501587 0.000000
						}
					}
				}
			}
			JOINT Left_ShortSleeve
			{
				OFFSET 0.265923 -10.480953 1.153800
				CHANNELS 3 Xrotation Yrotation Zrotation
				End Site
				{
					OFFSET 1.725763 19.823879 0.000000
				}
			}
		}
		JOINT RightUpLeg
		{
			OFFSET -6.797100 -2.508499 -1.318700
			CHANNELS 3 Xrotation Yrotation Zrotation
			JOINT RightLeg
			{
				OFFSET -0.082453 -29.241932 0.688000
				CHANNELS 3 Xrotation Yrotation Zrotation
				JOINT RightFoot
				{
					OFFSET 0.082453 -29.568058 -0.264600
					CHANNELS 3 Xrotation Yrotation Zrotation
					JOINT RightToeBase
					{
						OFFSET -3.115300 -8.682800 16.113400
						CHANNELS 3 Xrotation Yrotation Zrotation
						End Site
						{
							OFFSET 0.000000 18.567114 0.000000
						}
					}
				}
			}
			JOINT Right_ShortSleeve
			{
				OFFSET -0.265923 -10.480953 1.153800
				CHANNELS 3 Xrotation Yrotation Zrotation
				End Site
				{
					OFFSET -1.725766 19.823910 0.000000
				}
			}
		}
	}
	JOINT Spine
	{
		OFFSET 0.000000 13.368103 0.470500
		CHANNELS 3 Xrotation Yrotation Zrotation
		JOINT Spine1
		{
			OFFSET 0.147000 13.837402 0.538800
			CHANNELS 3 Xrotation Yrotation Zrotation
			JOINT Spine2
			{
				OFFSET 0.168000 16.242897 -1.435500
				CHANNELS 3 Xrotation Yrotation Zrotation
				JOINT Neck
				{
					OFFSET 0.217200 18.631500 -1.679100
					CHANNELS 3 Xrotation Yrotation Zrotation
					JOINT Head
					{
						OFFSET 0.000000 6.599396 1.385900
						CHANNELS 3 Xrotation Yrotation Zrotation
						JOINT Hat
						{
							OFFSET -0.532200 27.220596 -10.096100
							CHANNELS 3 Xrotation Yrotation Zrotation
							End Site
							{
								OFFSET 0.000000 22.029861 0.000000
							}
						}
						JOINT HairD
						{
							OFFSET -10.777400 17.437393 -1.325900
							CHANNELS 3 Xrotation Yrotation Zrotation
							JOINT HairD1
							{
								OFFSET -3.290299 -11.051193 1.062200
								CHANNELS 3 Xrotation Yrotation Zrotation
								End Site
								{
									OFFSET 0.000000 11.579437 0.000000
								}
							}
						}
						JOINT HairB
						{
							OFFSET -10.777400 17.437393 1.467900
							CHANNELS 3 Xrotation Yrotation Zrotation
							JOINT HairB1
							{
								OFFSET -1.561200 -12.956299 3.590200
								CHANNELS 3 Xrotation Yrotation Zrotation
								End Site
								{
									OFFSET 0.000000 13.534866 0.000000
								}
							}
						}
						JOINT HairA
						{
							OFFSET 9.713100 17.437393 1.467900
							CHANNELS 3 Xrotation Yrotation Zrotation
							JOINT HairA1
							{
								OFFSET 1.561200 -12.956299 3.590200
								CHANNELS 3 Xrotation Yrotation Zrotation
								End Site
								{
									OFFSET 0.000000 13.534866 0.000000
								}
							}
						}
						JOINT HairC
						{
							OFFSET 9.713100 17.437393 -1.325900
							CHANNELS 3 Xrotation Yrotation Zrotation
							JOINT HairC1
							{
								OFFSET 3.290300 -11.051193 1.062200
								CHANNELS 3 Xrotation Yrotation Zrotation
								End Site
								{
									OFFSET 0.000000 11.579437 0.000000
								}
							}
						}
					}
				}
				JOINT LeftShoulder
				{
					OFFSET 5.101800 15.108002 -2.763700
					CHANNELS 3 Xrotation Yrotation Zrotation
					JOINT LeftArm
					{
						OFFSET 9.825497 2.506317 -1.597400
						CHANNELS 3 Xrotation Yrotation Zrotation
						JOINT LeftForeArm
						{
							OFFSET 21.966244 0.000000 0.000000
							CHANNELS 3 Xrotation Yrotation Zrotation
							JOINT LeftHand
							{
								OFFSET 33.879036 0.000000 0.000000
								CHANNELS 3 Xrotation Yrotation Zrotation
								JOINT LeftHandThumb1
								{
									OFFSET 6.715286 -2.359680 3.363841
									CHANNELS 3 Xrotation Yrotation Zrotation
									JOINT LeftHandThumb2
									{
										OFFSET 2.507072 -1.447464 1.447461
										CHANNELS 3 Xrotation Yrotation Zrotation
										JOINT LeftHandThumb3
										{
											OFFSET 2.898338 -1.673355 1.673357
											CHANNELS 3 Xrotation Yrotation Zrotation
											End Site
											{
												OFFSET -0.295959 3.727692 -0.131651
											}
										}
									}
								}
								JOINT LeftHandIndex1
								{
									OFFSET 14.190811 -0.254547 3.840278
									CHANNELS 3 Xrotation Yrotation Zrotation
									JOINT LeftHandIndex2
									{
										OFFSET 3.551727 0.000000 -0.000000
										CHANNELS 3 Xrotation Yrotation Zrotation
										JOINT LeftHandIndex3
										{
											OFFSET 2.894196 0.000000 0.000000
											CHANNELS 3 Xrotation Yrotation Zrotation
											End Site
											{
												OFFSET -1.000603 2.690872 0.366626
											}
										}
									}
								}
								JOINT LeftHandMiddle1
								{
									OFFSET 13.776489 0.000000 0.000000
									CHANNELS 3 Xrotation Yrotation Zrotation
									JOINT LeftHandMiddle2
									{
										OFFSET 3.438232 0.000000 0.000000
										CHANNELS 3 Xrotation Yrotation Zrotation
										JOINT LeftHandMiddle3
										{
											OFFSET 3.691551 0.000000 0.000000
											CHANNELS 3 Xrotation Yrotation Zrotation
											End Site
											{
												OFFSET -1.082298 3.499527 0.457670
											}
										}
									}
								}
								JOINT LeftHandRing1
								{
									OFFSET 13.966164 -0.268127 -3.067488
									CHANNELS 3 Xrotation Yrotation Zrotation
									JOINT LeftHandRing2
									{
										OFFSET 3.162567 0.000000 0.000000
										CHANNELS 3 Xrotation Yrotation Zrotation
										JOINT LeftHandRing3
										{
											OFFSET 3.324348 0.000000 0.000000
											CHANNELS 3 Xrotation Yrotation Zrotation
											End Site
											{
												OFFSET -0.861900 3.184998 0.405154
											}
										}
									}
								}
								JOINT LeftHandPinky1
								{
									OFFSET 13.131393 -0.168503 -5.746925
									CHANNELS 3 Xrotation Yrotation Zrotation
									JOINT LeftHandPinky2
									{
										OFFSET 2.849182 0.000000 0.000000
										CHANNELS 3 Xrotation Yrotation Zrotation
										JOINT LeftHandPinky3
										{
											OFFSET 2.805038 0.000000 0.000000
											CHANNELS 3 Xrotation Yrotation Zrotation
											End Site
											{
												OFFSET -0.882500 2.642609 0.325652
											}
										}
									}
								}
							}
							JOINT Left_Sleeve
							{
								OFFSET 6.592125 -0.646545 0.805568
								CHANNELS 3 Xrotation Yrotation Zrotation
								End Site
								{
									OFFSET -0.000179 20.275787 -0.000000
								}
							}
						}
					}
				}
				JOINT RightShoulder
				{
					OFFSET -5.731700 15.108002 -2.763700
					CHANNELS 3 Xrotation Yrotation Zrotation
					JOINT RightArm
					{
						OFFSET -9.825497 2.506317 -1.597400
						CHANNELS 3 Xrotation Yrotation Zrotation
						JOINT RightForeArm
						{
							OFFSET -21.966242 0.000000 0.000000
							CHANNELS 3 Xrotation Yrotation Zrotation
							JOINT RightHand
							{
								OFFSET -33.879032 0.000000 0.000000
								CHANNELS 3 Xrotation Yrotation Zrotation
								JOINT RightHandThumb1
								{
									OFFSET -6.715286 -2.359680 3.363841
									CHANNELS 3 Xrotation Yrotation Zrotation
									JOINT RightHandThumb2
									{
										OFFSET -2.507072 -1.447464 1.447461
										CHANNELS 3 Xrotation Yrotation Zrotation
										JOINT RightHandThumb3
										{
											OFFSET -2.898338 -1.673355 1.673357
											CHANNELS 3 Xrotation Yrotation Zrotation
											End Site
											{
												OFFSET 0.295959 3.727692 -0.131651
											}
										}
									}
								}
								JOINT RightHandIndex1
								{
									OFFSET -14.190811 -0.254547 3.840278
									CHANNELS 3 Xrotation Yrotation Zrotation
									JOINT RightHandIndex2
									{
										OFFSET -3.551727 0.000000 -0.000000
										CHANNELS 3 Xrotation Yrotation Zrotation
										JOINT RightHandIndex3
										{
											OFFSET -2.894196 0.000000 0.000000
											CHANNELS 3 Xrotation Yrotation Zrotation
											End Site
											{
												OFFSET 1.000603 2.690872 0.366626
											}
										}
									}
								}
								JOINT RightHandMiddle1
								{
									OFFSET -13.776489 0.000000 0.000000
									CHANNELS 3 Xrotation Yrotation Zrotation
									JOINT RightHandMiddle2
									{
										OFFSET -3.438232 0.000000 0.000000
										CHANNELS 3 Xrotation Yrotation Zrotation
										JOINT RightHandMiddle3
										{
											OFFSET -3.691551 0.000000 0.000000
											CHANNELS 3 Xrotation Yrotation Zrotation
											End Site
											{
												OFFSET 1.082298 3.499527 0.457670
											}
										}
									}
								}
								JOINT RightHandRing1
								{
									OFFSET -13.966164 -0.268127 -3.067488
									CHANNELS 3 Xrotation Yrotation Zrotation
									JOINT RightHandRing2
									{
										OFFSET -3.162567 0.000000 0.000000
										CHANNELS 3 Xrotation Yrotation Zrotation
										JOINT RightHandRing3
										{
											OFFSET -3.324348 0.000000 0.000000
											CHANNELS 3 Xrotation Yrotation Zrotation
											End Site
											{
												OFFSET 0.861900 3.184998 0.405154
											}
										}
									}
								}
								JOINT RightHandPinky1
								{
									OFFSET -13.131393 -0.168503 -5.746925
									CHANNELS 3 Xrotation Yrotation Zrotation
									JOINT RightHandPinky2
									{
										OFFSET -2.849182 0.000000 0.000000
										CHANNELS 3 Xrotation Yrotation Zrotation
										JOINT RightHandPinky3
										{
											OFFSET -2.805038 0.000000 0.000000
											CHANNELS 3 Xrotation Yrotation Zrotation
											End Site
											{
												OFFSET 0.882500 2.642609 0.325652
											}
										}
									}
								}
							}
							JOINT Right_Sleeve
							{
								OFFSET -6.592125 -0.646545 0.805568
								CHANNELS 3 Xrotation Yrotation Zrotation
								End Site
								{
									OFFSET 0.000179 20.275787 -0.000000
								}
							}
						}
					}
				}
				JOINT Bind_Right_JacketString
				{
					OFFSET -3.534800 11.969597 7.200700
					CHANNELS 3 Xrotation Yrotation Zrotation
					JOINT Bind_Right_JacketString1
					{
						OFFSET -0.319900 -6.102600 2.794100
						CHANNELS 3 Xrotation Yrotation Zrotation
						End Site
						{
							OFFSET 0.000000 6.719452 0.000000
						}
					}
				}
				JOINT Bind_Left_JacketString
				{
					OFFSET 2.904800 11.969597 7.200700
					CHANNELS 3 Xrotation Yrotation Zrotation
					JOINT Bind_Left_JacketString1
					{
						OFFSET 0.364800 -5.904503 3.186800
						CHANNELS 3 Xrotation Yrotation Zrotation
						End Site
						{
							OFFSET 0.000000 6.719513 0.000000
						}
					}
				}
				JOINT HairE
				{
					OFFSET 5.915200 17.612701 -11.592200
					CHANNELS 3 Xrotation Yrotation Zrotation
					JOINT HairE1
					{
						OFFSET 0.289200 -7.171898 -1.284500
						CHANNELS 3 Xrotation Yrotation Zrotation
						End Site
						{
							OFFSET 0.000000 7.291756 0.000000
						}
					}
				}
				JOINT HairF
				{
					OFFSET -0.864800 17.612701 -11.592200
					CHANNELS 3 Xrotation Yrotation Zrotation
					JOINT HairF1
					{
						OFFSET 0.000000 -14.087097 -2.127501
						CHANNELS 3 Xrotation Yrotation Zrotation
						End Site
						{
							OFFSET 0.000000 14.246841 0.000000
						}
					}
				}
				JOINT HairG
				{
					OFFSET -8.087700 17.612701 -11.592200
					CHANNELS 3 Xrotation Yrotation Zrotation
					JOINT HairG1
					{
						OFFSET -0.293600 -6.081398 -0.910100
						CHANNELS 3 Xrotation Yrotation Zrotation
						End Site
						{
							OFFSET 0.000000 6.156120 0.000000
						}
					}
				}
			}
		}
	}
	JOINT Pouch
	{
		OFFSET 0.000000 4.394501 10.847300
		CHANNELS 3 Xrotation Yrotation Zrotation
		End Site
		{
			OFFSET 0.000000 21.880577 0.000000
		}
	}
	JOINT Bag
	{
		OFFSET -13.229000 4.813004 -0.593300
		CHANNELS 3 Xrotation Yrotation Zrotation
		End Site
		{
			OFFSET 0.000000 21.880577 0.000000
		}
	}
	JOINT OccupyGuyFacialAnim_Joint
	{
		OFFSET 1.000000 -70.206398 -1.655000
		CHANNELS 3 Xrotation Yrotation Zrotation
		End Site
		{
			OFFSET 0.000000 21.880577 0.000000
		}
	}
}
MOTION
Frames: 4
Frame Time: 0.033333
-1.693857 31.387787 -0.868069 -3.823122 -17.810579 11.050499 -0.000000 0.000000 0.000001 -100.551169 3.540941 22.445152 94.561401 -1.795216 -1.361964 11.656887 2.432259 -2.201399 0.000000 0.000000 0.000000 0.000001 0.000001 0.000000 -41.009648 2.523760 -18.863680 150.086058 -24.974346 -3.600349 -19.120148 -14.591430 -10.050704 0.000000 -0.000000 0.000000 0.000002 -0.000002 -0.000003 29.209208 -6.075784 -5.432865 6.542225 -1.269571 -0.713463 6.787784 -2.382807 0.276733 4.988356 5.026632 0.319785 -10.668557 36.423910 -18.409692 0.000001 -0.000001 -0.000001 0.000001 -0.000001 -0.000001 0.000001 -0.000001 -0.000000 0.000001 -0.000001 -0.000000 -0.000001 -0.000001 -0.000000 0.000001 -0.000001 -0.000000 -0.000001 -0.000001 -0.000000 0.000001 -0.000001 -0.000001 0.000001 -0.000001 -0.000001 1.096746 -23.437130 -7.435965 -46.980264 20.700458 -32.829209 0.000024 -119.385614 0.000027 -103.658045 -13.535660 -3.615684 15.927363 -1.723606 15.609697 -10.299410 26.395061 -14.635933 0.000002 0.000001 -0.000001 -2.085766 5.362992 -67.322149 6.316322 5.832585 -94.568818 0.000000 0.000000 0.000002 3.062597 7.693275 -76.803906 6.759997 5.780287 -98.952031 -0.000000 0.000001 0.000004 8.791761 8.367045 -86.867773 6.371456 5.827956 -95.111395 -0.000002 -0.000000 -0.000002 4.410704 8.025243 -80.025638 5.669497 5.848269 -88.218676 -0.000004 -0.000001 0.000003 0.000003 -0.000001 -0.000002 0.920993 27.289997 -0.410739 -28.765226 23.799989 52.472747 0.000609 96.531426 -0.000610 -14.539977 -19.876574 15.883200 39.291944 21.632256 5.210444 -7.132976 -23.361398 -22.097469 -0.000001 0.000002 -0.000000 -1.641197 3.277847 15.571182 1.811753 -3.688316 52.309045 -0.000000 -0.000001 0.000002 4.822431 -7.539585 63.339684 5.888112 -4.491892 105.342185 0.000002 -0.000002 0.000001 6.455109 -7.906045 69.352709 3.475847 -4.505166 75.290541 -0.000001 -0.000000 -0.000001 8.011686 -7.814433 77.038954 1.891231 -3.748296 53.534862 0.000000 0.000001 -0.000001 0.000001 -0.000001 -0.000002 0.000000 -0.000000 -0.000001 0.000001 -0.000002 -0.000000 0.000000 -0.000000 0.000000 0.000000 -0.000000 0.000000 0.000000 -0.000000 -0.000001 0.000001 -0.000002 0.000000 0.000000 -0.000000 0.000000 0.000000 -0.000000 0.000000 0.000000 -0.000000 -0.000001 0.000001 -0.000002 0.000000 -0.000000 0.000000 0.000001 -0.000000 0.000000 0.000001 -0.000000 0.000000 0.000001 
-1.793124 31.599426 -1.015176 -3.140877 -16.665192 11.153879 -0.000000 -0.000001 0.000000 -100.969525 4.105533 21.813273 93.595359 -2.089630 -1.326542 12.098934 2.444103 -1.918621 0.000000 0.000000 -0.000000 -0.000001 -0.000000 -0.000000 -41.934240 2.123265 -19.093087 150.013986 -24.496615 -3.069287 -18.935832 -14.787300 -10.290208 -0.000000 -0.000000 0.000000 0.000001 0.000000 -0.000001 28.528008 -6.279702 -5.339853 6.360256 -1.311107 -0.664050 6.619217 -2.481295 0.377310 5.113686 5.086867 0.007907 -12.134404 34.580070 -17.912499 0.000002 -0.000001 0.000000 0.000002 -0.000001 0.000000 0.000002 -0.000001 0.000001 0.000002 -0.000001 0.000001 0.000000 0.000001 0.000001 0.000002 -0.000001 0.000001 0.000000 0.000001 0.000001 0.000002 -0.000001 0.000000 0.000002 -0.000001 0.000000 1.179969 -23.152740 -7.094219 -45.905227 19.698749 -34.255554 -0.000010 -116.803885 -0.000006 -103.538578 -12.944186 -3.573115 14.336666 -1.864489 11.582908 -8.807981 25.887494 -14.297095 0.000000 0.000004 -0.000003 -2.235130 5.117167 -65.809392 5.803463 5.850857 -89.533268 0.000002 0.000002 -0.000002 2.966610 7.659300 -76.403616 6.168838 5.842465 -93.118810 -0.000001 0.000000 0.000002 8.392668 8.393394 -85.881173 5.905559 5.850820 -90.534478 0.000001 0.000001 0.000000 4.440230 8.021507 -78.811763 5.215467 5.816571 -83.753071 -0.000001 -0.000002 0.000001 0.000001 -0.000001 -0.000001 0.821223 27.446379 -0.503915 -29.067390 23.282995 52.390464 -0.000048 96.383279 0.000046 -15.699152 -19.059076 15.564640 38.282800 21.036308 5.985016 -6.617953 -22.739663 -22.577918 0.000003 -0.000001 -0.000001 -1.600520 3.190562 15.431754 1.816752 -3.692201 52.387110 0.000000 0.000000 0.000000 4.612215 -7.453094 62.916144 5.872662 -4.496088 105.144991 0.000002 0.000001 -0.000001 6.481314 -7.933700 69.091564 3.448115 -4.497831 74.936888 0.000000 -0.000002 -0.000000 8.029939 -7.830400 76.892535 1.904484 -3.758025 53.737179 -0.000002 0.000001 0.000001 -0.000001 0.000002 -0.000000 0.000003 0.000001 0.000000 -0.000001 0.000002 0.000000 0.000003 0.000001 -0.000000 0.000003 0.000001 -0.000000 0.000003 0.000001 0.000000 -0.000001 0.000002 0.000001 0.000003 0.000001 -0.000000 0.000003 0.000001 -0.000000 0.000003 0.000001 0.000000 -0.000001 0.000002 0.000001 -0.000000 -0.000001 0.000000 -0.000000 -0.000001 0.000000 -0.000000 -0.000001 0.000000 
-1.897097 31.787399 -1.118799 -2.290998 -15.385005 11.175243 0.000000 0.000001 0.000000 -101.642313 4.622079 21.149339 92.715624 -2.465969 -1.286971 12.524876 2.467739 -1.574414 -0.000000 -0.000000 -0.000000 0.000001 0.000000 -0.000000 -42.781761 1.756210 -19.380209 149.944441 -23.864005 -2.418551 -18.890589 -14.924375 -10.462719 -0.000000 -0.000001 -0.000000 0.000003 -0.000000 -0.000001 27.603335 -6.333077 -5.103365 6.116819 -1.327276 -0.570730 6.389583 -2.554838 0.520406 5.348593 5.100655 -0.370672 -13.989155 32.090619 -17.049605 0.000003 -0.000001 0.000000 0.000003 -0.000001 0.000000 0.000003 -0.000001 0.000000 0.000003 -0.000001 -0.000000 -0.000001 -0.000001 -0.000000 0.000003 -0.000001 -0.000000 -0.000001 -0.000001 -0.000000 0.000003 -0.000001 0.000000 0.000003 -0.000001 0.000000 1.268200 -22.820903 -6.763905 -44.651361 18.351890 -35.928895 -0.000035 -113.661192 -0.000027 -103.646543 -12.362453 -3.677452 12.776859 -2.057179 7.407698 -7.260694 25.430753 -13.901842 0.000002 0.000001 -0.000003 -2.399528 4.822969 -64.043890 5.218390 5.816852 -83.781908 0.000001 0.000001 -0.000002 2.850437 7.614079 -75.834586 5.490026 5.839949 -86.456138 0.000001 0.000001 -0.000003 7.928171 8.413321 -84.640995 5.373205 5.831593 -85.307232 0.000002 0.000001 -0.000001 4.468078 8.020559 -77.373933 4.701871 5.737481 -78.653931 -0.000003 -0.000001 -0.000001 0.000002 -0.000001 -0.000001 0.666408 27.519136 -0.455984 -29.031528 22.781944 51.935157 0.000080 96.472809 -0.000081 -17.081687 -18.197997 14.926076 37.283981 20.429425 6.747600 -6.099846 -22.124658 -23.067958 -0.000000 0.000000 0.000003 -1.560246 3.102987 15.292227 1.821804 -3.696051 52.465251 0.000000 -0.000000 -0.000002 4.403096 -7.363732 62.492426 5.857179 -4.500223 104.947550 0.000001 -0.000001 -0.000001 6.507238 -7.961669 68.830002 3.420351 -4.490280 74.582763 0.000000 0.000001 0.000000 8.048121 -7.846493 76.745945 1.917758 -3.767712 53.939800 0.000000 0.000002 -0.000003 -0.000001 -0.000000 0.000001 0.000003 -0.000000 0.000001 -0.000001 -0.000000 -0.000000 0.000003 -0.000000 0.000001 0.000003 -0.000000 0.000001 0.000003 -0.000000 0.000001 -0.000001 -0.000000 -0.000000 0.000003 -0.000000 0.000001 0.000003 -0.000000 0.000001 0.000003 -0.000000 0.000001 -0.000001 -0.000000 -0.000000 0.000000 0.000001 0.000000 0.000000 0.000001 0.000000 0.000000 0.000001 0.000000 
-1.965165 31.930847 -1.125456 -1.431343 -14.111846 11.300027 0.000000 -0.000000 -0.000000 -102.386195 5.183734 20.413059 92.096720 -2.753606 -1.248991 12.785502 2.491914 -1.284010 -0.000000 0.000000 -0.000000 -0.000003 0.000000 -0.000000 -43.175542 1.794355 -19.981305 149.898187 -22.960507 -1.715769 -19.112372 -14.905242 -10.435084 -0.000001 0.000002 -0.000001 0.000000 0.000002 0.000001 26.498036 -6.124207 -4.850346 5.854110 -1.281539 -0.457891 6.140301 -2.567314 0.679955 5.584596 5.074384 -0.790542 -15.058851 29.280642 -16.635709 0.000002 0.000002 0.000000 0.000002 0.000002 0.000000 0.000002 0.000002 0.000000 0.000002 0.000002 0.000000 -0.000002 -0.000000 0.000000 0.000002 0.000002 0.000000 -0.000002 -0.000000 0.000000 0.000002 0.000002 0.000000 0.000002 0.000002 0.000000 1.369671 -22.432614 -6.334953 -43.304957 16.539216 -38.065085 0.000083 -109.649302 0.000055 -103.867465 -11.593407 -3.719464 11.481327 -2.504004 3.680838 -5.803794 24.951400 -13.460331 -0.000001 0.000001 -0.000005 -2.568991 4.486583 -62.075771 4.590081 5.714027 -77.533794 0.000002 -0.000001 -0.000000 2.715985 7.555927 -75.068888 4.758350 5.748453 -79.218289 0.000001 0.000000 -0.000001 7.412354 8.420074 -83.144023 4.799475 5.756112 -79.628702 0.000004 0.000000 -0.000002 4.490562 8.023444 -75.743868 4.154396 5.600487 -73.115761 0.000003 -0.000002 0.000003 0.000002 0.000000 -0.000001 0.578308 27.652239 -0.432170 -28.595439 21.920305 51.251656 0.000293 97.109328 -0.000289 -18.269197 -17.370078 13.803123 36.297282 19.813067 7.496816 -5.579554 -21.517765 -23.566598 -0.000004 0.000001 -0.000002 -1.520458 3.015288 15.152881 1.826838 -3.699916 52.543375 0.000001 0.000000 0.000000 4.195511 -7.271741 62.069385 5.841706 -4.504319 104.750240 0.000000 0.000000 -0.000002 6.532814 -7.989966 68.568590 3.392666 -4.482577 74.228904 -0.000001 -0.000000 -0.000000 8.066166 -7.862727 76.599410 1.931087 -3.777371 54.142264 -0.000002 0.000001 0.000001 -0.000001 -0.000002 -0.000001 -0.000001 0.000000 0.000001 -0.000001 -0.000002 0.000001 -0.000001 0.000000 0.000000 -0.000001 0.000000 0.000000 -0.000001 0.000000 0.000001 -0.000001 -0.000002 0.000002 -0.000001 0.000000 0.000000 -0.000001 0.000000 0.000000 -0.000001 0.000000 0.000001 -0.000001 -0.000002 0.000002 0.000000 -0.000000 -0.000000 0.000000 -0.000000 -0.000000 0.000000 -0.000000 -0.000000 
